<?xml version="1.0" standalone="no"?><!DOCTYPE svg PUBLIC "-//W3C//DTD SVG 1.1//EN" "http://www.w3.org/Graphics/SVG/1.1/DTD/svg11.dtd"><svg t="1561624829744" class="icon" viewBox="0 0 1024 1024" version="1.1" xmlns="http://www.w3.org/2000/svg" p-id="1974" xmlns:xlink="http://www.w3.org/1999/xlink" width="200" height="200"><defs><style type="text/css"></style></defs><path d="M902.303289 896.6144c-13.334756 13.334756-34.952533 13.334756-48.310044 0l-159.516444-159.561956c-61.781333 53.293511-142.085689 85.742933-230.058667 85.742933-194.810311 0-352.711111-157.9008-352.711111-352.711111 0-194.787556 157.9008-352.711111 352.711111-352.711111 194.833067 0 352.711111 157.923556 352.711111 352.711111 0 82.170311-28.353422 157.650489-75.480178 217.588622l160.676978 160.676978C915.592533 861.684622 915.592533 883.279644 902.303289 896.6144zM464.418133 185.639822c-157.0816 0-284.444444 127.362844-284.444444 284.444444 0 157.104356 127.362844 284.444444 284.444444 284.444444s284.444444-127.340089 284.444444-284.444444C748.862578 313.002667 621.499733 185.639822 464.418133 185.639822z" p-id="1975"></path></svg>